# xmcd CD database file
# 
# Track frame offsets:
# 	225
# 	16118
# 	42367
# 	53985
# 	70287
# 	85947
# 	106421
# 	119338
# 	134094
# 	156370
# 	171728
# 	191500
# 
# Disc length: 2847 seconds
# 
# Submitted via: Nero 6, 6, 0, 3
# 
# Revision: 0
# Processed by: cddbd v1.5.1PL0 Copyright (c) Steve Scherf et al.
#
DISCID=af0b1c0c
DTITLE=Steve "Big Man" Clayton - Dirty Mistreater
DYEAR=1900
DGENRE=
TTITLE0=Dirty Mistreater
TTITLE1=Baby Please
TTITLE2=Doghouse Boogie
TTITLE3=She Just Turned 'round
TTITLE4=Mama Tell Your Man
TTITLE5=TC Shuffle
TTITLE6=Boogie Woogie Mama
TTITLE7=I Got You
TTITLE8=Help Me Somebody
TTITLE9=Little Bit Of Love
TTITLE10=Just For Fun
TTITLE11=A Prayer
EXTD=
EXTT0=
EXTT1=
EXTT2=
EXTT3=
EXTT4=
EXTT5=
EXTT6=
EXTT7=
EXTT8=
EXTT9=
EXTT10=
EXTT11=
PLAYORDER=
